<svg width="39" height="30" viewBox="0 0 39 30" fill="none" xmlns="http://www.w3.org/2000/svg">
<path d="M17.5874 14.4045C18.6058 15.0834 20.3927 15.0835 21.4112 14.4044C21.4114 14.4044 21.4116 14.4042 21.4118 14.4041L38.7688 2.8327C38.1995 1.18616 36.6346 0 34.797 0H4.20135C2.36369 0 0.798881 1.18616 0.229492 2.8327L17.5869 14.4042C17.5871 14.4044 17.5873 14.4044 17.5874 14.4045Z" fill="#2A358F"/>
<path d="M22.68 16.3438C22.6798 16.3439 22.6797 16.3441 22.6795 16.3441C21.7881 16.9384 20.6439 17.2355 19.5 17.2355C18.3559 17.2355 17.2121 16.9384 16.3206 16.3441C16.3205 16.344 16.3204 16.3439 16.3203 16.3438L0 5.46375V25.0456C0 27.3625 1.88504 29.2475 4.20213 29.2475H34.798C37.115 29.2475 39 27.3625 39 25.0456V5.46375L22.68 16.3438Z" fill="#2A358F"/>
</svg>
