<svg width="29" height="29" viewBox="0 0 29 29" fill="none" xmlns="http://www.w3.org/2000/svg">
<path d="M25.5476 0H3.45238C1.54874 0 0 1.54874 0 3.45238V25.5476C0 27.4513 1.54874 29 3.45238 29H25.5476C27.4513 29 29 27.4513 29 25.5476V3.45238C29 1.54874 27.4513 0 25.5476 0ZM22.7899 12.6516C22.6315 12.667 22.4725 12.675 22.3134 12.6758C21.4544 12.6759 20.6089 12.4621 19.8532 12.0537C19.0975 11.6453 18.4554 11.0551 17.9848 10.3364V18.3025C17.9848 19.4669 17.6395 20.6053 16.9926 21.5735C16.3456 22.5417 15.4261 23.2963 14.3503 23.742C13.2744 24.1876 12.0906 24.3042 10.9485 24.077C9.80641 23.8498 8.75733 23.2891 7.93392 22.4657C7.11051 21.6423 6.54976 20.5932 6.32258 19.4511C6.09541 18.309 6.212 17.1252 6.65763 16.0493C7.10325 14.9735 7.85789 14.054 8.82612 13.407C9.79434 12.7601 10.9327 12.4148 12.0971 12.4148C12.22 12.4148 12.3402 12.4258 12.461 12.4334V15.3348C12.3402 15.3203 12.2214 15.2982 12.0971 15.2982C11.3002 15.2982 10.5359 15.6148 9.97232 16.1783C9.40878 16.7419 9.09219 17.5062 9.09219 18.3031C9.09219 19.1001 9.40878 19.8644 9.97232 20.428C10.5359 20.9915 11.3002 21.3081 12.0971 21.3081C13.757 21.3081 15.2229 20.0003 15.2229 18.3404L15.2519 4.81124H18.0276C18.1545 6.01729 18.7012 7.14038 19.5722 7.98415C20.4432 8.82791 21.5831 9.33865 22.7926 9.42707V12.6516" fill="#2A358F"/>
</svg>
