<svg width="25" height="25" viewBox="0 0 25 25" fill="none" xmlns="http://www.w3.org/2000/svg">
<path d="M19.8082 11.5421C16.2938 11.5421 13.4585 8.70663 13.4585 5.19241C13.4585 4.39368 13.6182 3.59494 13.8978 2.91602H2.75564C2.51602 2.91602 2.2764 2.91602 2.03678 2.95595C0.87861 3.15564 0 4.11412 0 5.27229V21.7263C0 23.124 1.19811 24.3222 2.59589 24.3222H18.85C19.3292 24.3222 19.7685 24.1624 20.1279 23.8828C20.8468 23.3237 21.1663 22.5649 21.1663 21.6863V13.499V11.3824C20.7669 11.4623 20.2877 11.5421 19.8084 11.5421H19.8082ZM6.30956 6.11073C7.8671 6.11073 9.10514 7.34877 9.10514 8.90631C9.10514 10.4638 7.8671 11.7019 6.3495 11.7019C4.79196 11.7019 3.55392 10.4239 3.55392 8.90631C3.55392 7.34877 4.79196 6.11073 6.30956 6.11073ZM18.6503 20.7673C18.6103 20.8472 18.4506 20.9271 18.2509 20.9271H18.171H7.46796C6.66922 20.9271 5.87049 20.9271 5.03181 20.8871H3.91358C3.55415 20.8871 3.23465 20.967 2.87522 20.9271H2.83529C2.79535 20.9271 2.75541 20.9271 2.75541 20.8871C2.51579 20.7274 2.99503 20.4079 3.07491 20.2881C3.31453 20.0085 6.03023 16.2145 6.07017 16.1746C6.4296 15.6155 6.94878 15.3359 7.46796 15.3359C8.22676 15.3359 8.62613 16.1346 9.22518 16.4941C10.0239 16.9733 10.5431 16.3343 10.9025 15.7353C11.1821 15.3359 11.4217 14.8966 11.7013 14.4573C11.861 14.2177 12.0208 13.9381 12.1805 13.6985C12.3802 13.4189 12.5399 13.0994 12.7396 12.8199L13.0991 12.2208C13.139 12.1809 13.1789 12.141 13.1789 12.101C13.3387 11.9013 13.4984 11.7815 13.6182 11.7815C13.738 11.7815 13.8978 11.9013 14.0176 12.141C15.3355 14.4972 16.6534 16.8932 17.9713 19.21L18.6103 20.3282L18.7301 20.5679C18.6902 20.6078 18.7301 20.6877 18.6503 20.7675V20.7673Z" fill="#2D2B81"/>
<path d="M19.808 0C16.9325 0 14.6162 2.31634 14.6162 5.19179C14.6162 8.06724 16.9325 10.3836 19.808 10.3836C22.6834 10.3836 24.9998 8.06724 24.9998 5.19179C24.9998 2.31634 22.6834 0 19.808 0ZM22.7234 4.71254L22.0844 5.27166C22.0445 5.3116 21.9646 5.3116 21.9246 5.27166L20.6067 3.95375C20.5269 3.87387 20.4071 3.91381 20.4071 4.03362V8.62613C20.4071 8.706 20.3671 8.74594 20.2872 8.74594H19.4086C19.3288 8.74594 19.2888 8.706 19.2888 8.62613V3.87387C19.2888 3.75406 19.169 3.71412 19.0891 3.794L17.5715 5.3116C17.5316 5.35153 17.4517 5.35153 17.4118 5.3116L16.8926 4.67261C16.8527 4.63267 16.8527 4.5528 16.8926 4.51286L19.7281 1.67735C19.7681 1.63741 19.8479 1.63741 19.8879 1.67735L22.7234 4.51286C22.7633 4.59273 22.7633 4.63267 22.7234 4.71254Z" fill="#2D2B81"/>
</svg>
