<svg width="25" height="25" viewBox="0 0 25 25" fill="red" xmlns="http://www.w3.org/2000/svg">
    <mask id="path-1-inside-1_816_739" fill="white">
        <path d="M10.1263 7.80293C9.26774 7.80293 8.56066 7.09585 8.56066 6.23731C8.56066 6.03526 8.3838 5.85859 8.18194 5.85859C7.9799 5.85859 7.80322 6.03544 7.80322 6.23731C7.80322 7.09585 7.09615 7.80293 6.2376 7.80293C6.03555 7.80293 5.85888 7.97978 5.85888 8.18165C5.85888 8.38369 6.03573 8.56037 6.2376 8.56037C7.09615 8.56037 7.80322 9.26744 7.80322 10.126C7.80322 10.328 7.98008 10.5047 8.18194 10.5047C8.38398 10.5047 8.56066 10.3279 8.56066 10.126C8.56066 9.26744 9.26774 8.56037 10.1263 8.56037C10.3283 8.56037 10.505 8.38351 10.505 8.18165C10.505 7.97978 10.3281 7.80293 10.1263 7.80293ZM8.18178 8.86354C8.00492 8.58575 7.77769 8.35853 7.49991 8.18167C7.7777 8.00482 8.00492 7.77759 8.18178 7.49981C8.35863 7.7776 8.58586 8.00482 8.86365 8.18167C8.58586 8.35853 8.35846 8.61112 8.18178 8.86354ZM16.7677 14.8484C15.5051 14.8484 14.4697 13.8636 14.4193 12.6009C14.4193 12.3989 14.2678 12.2474 14.0658 12.2474C13.8637 12.2474 13.6617 12.3989 13.6617 12.6009C13.6111 13.8636 12.5759 14.8484 11.3384 14.8484H11.3132C11.1112 14.8484 10.9345 15.0253 10.9345 15.2272C10.9345 15.4292 11.1114 15.6059 11.3132 15.6059C12.6011 15.6059 13.6616 16.6665 13.6616 17.9543V18.0552C13.6616 18.1562 13.6868 18.2573 13.7626 18.333C13.8383 18.4088 13.9394 18.4593 14.0404 18.4593C14.1413 18.4593 14.2424 18.4088 14.3182 18.333C14.3939 18.2573 14.4191 18.1562 14.4191 18.0552V17.9543C14.4191 16.6664 15.4545 15.6059 16.7423 15.6059H16.7675C16.9696 15.6059 17.1463 15.429 17.1463 15.2272C17.1466 15.0253 16.9949 14.8484 16.7677 14.8484H16.7677ZM14.0404 16.49C13.7626 15.9596 13.3082 15.5303 12.803 15.2525C13.3334 14.9747 13.7626 14.5455 14.0404 14.0151C14.3182 14.5455 14.7726 14.9747 15.2778 15.2525C14.7728 15.5303 14.3182 15.9596 14.0404 16.49ZM24.596 5.85856C21.5658 5.85856 19.1162 3.40905 19.1162 0.378719C19.1162 0.176674 18.9394 0 18.7375 0C18.5353 0 18.3586 0.151489 18.3586 0.378719C18.3586 1.51505 17.9799 2.65137 17.3232 3.58586C15.8333 2.77768 14.1666 2.34843 12.4747 2.34843C6.86856 2.34843 2.32307 6.89392 2.32307 12.5C2.32307 14.3434 2.82808 16.1616 3.78773 17.7273C2.97955 18.8637 1.71691 19.5455 0.403908 19.5455H0.378719C0.176674 19.5455 0 19.7224 0 19.9243C0 20.1263 0.176855 20.303 0.378719 20.303C2.80307 20.303 4.69702 22.1969 4.69702 24.6213C4.69702 24.8233 4.87388 25 5.07574 25C5.27779 25 5.45446 24.8231 5.45446 24.6213C5.45446 23.2323 6.11099 21.9445 7.19694 21.1364C8.78791 22.1212 10.6313 22.6516 12.5 22.6516C15.3283 22.6516 18.0051 21.4899 19.9243 19.4193V19.5456C19.9243 19.7476 20.1012 19.9243 20.303 19.9243C20.5051 19.9243 20.6818 19.7474 20.6818 19.5456C20.6818 18.889 21.2122 18.3587 21.8686 18.3587C22.0707 18.3587 22.2474 18.1818 22.2474 17.98C22.2474 17.7779 22.0705 17.6012 21.8686 17.6012C21.6918 17.6012 21.4899 17.5507 21.3382 17.4749C22.1968 15.9597 22.6514 14.2678 22.6514 12.5002C22.6514 10.8082 22.2221 9.14155 21.414 7.65164C22.3483 6.99511 23.4594 6.61623 24.6211 6.61623C24.8232 6.61623 24.9999 6.43938 24.9999 6.23751C25 6.03529 24.798 5.85844 24.5959 5.85844L24.596 5.85856ZM5.05044 22.6769C4.54543 21.4142 3.53519 20.4042 2.27255 19.899C3.18165 19.4949 3.98965 18.8384 4.57059 17.9293C4.77264 17.6263 4.92412 17.298 5.0756 16.9696C5.3282 17.6262 5.70692 18.2071 6.16138 18.6867L6.18657 18.7119H6.21176C6.6916 19.2169 7.24716 19.5958 7.87848 19.8736C7.5755 19.9999 7.27237 20.1514 6.96938 20.3281C6.08581 20.9344 5.42933 21.7425 5.0504 22.6769L5.05044 22.6769ZM20.3031 18.384C20.2779 18.3334 20.2273 18.3082 20.2022 18.2577C20.177 18.2325 20.1516 18.2071 20.1264 18.1819C20.0507 18.1062 19.9749 18.0304 19.8738 17.9799C20.0253 17.8536 20.1768 17.7273 20.2779 17.5758C20.3536 17.6767 20.4547 17.7778 20.5557 17.8788C20.6062 17.904 20.6314 17.9545 20.682 17.9797C20.5555 18.081 20.404 18.2325 20.3031 18.384ZM20.7828 16.8941C20.7576 16.8435 20.7322 16.7678 20.7322 16.7172C20.7322 16.692 20.707 16.692 20.707 16.6667C20.6818 16.5909 20.6818 16.4898 20.6818 16.4141C20.6818 16.212 20.505 16.0354 20.3031 16.0354C20.1011 16.0354 19.9244 16.2122 19.9244 16.4141C19.9244 17.0706 19.394 17.601 18.7375 17.601C18.5355 17.601 18.3588 17.7778 18.3588 17.9797C18.3588 18.1817 18.5356 18.3584 18.7375 18.3584C18.8132 18.3584 18.8638 18.3584 18.9395 18.3836H18.9901C19.0658 18.4088 19.1164 18.4088 19.1921 18.4341H19.2173C19.2679 18.4593 19.3183 18.4847 19.3688 18.5099C19.394 18.5099 19.394 18.5351 19.4194 18.5351C19.4699 18.5603 19.5203 18.6108 19.5709 18.6614C17.7778 20.7068 15.2274 21.8685 12.5001 21.8685C10.8839 21.8685 9.31831 21.4644 7.92936 20.6816C8.05566 20.6311 8.18196 20.5807 8.30808 20.5301C8.33327 20.5301 8.38383 20.505 8.40902 20.505C8.53532 20.4544 8.66162 20.4292 8.78773 20.404H8.81292C8.93922 20.3788 9.09071 20.3535 9.21701 20.3283H9.31794C9.44424 20.3283 9.57054 20.3031 9.69666 20.3031H9.74722C9.94926 20.3031 10.1259 20.1262 10.1259 19.9244C10.1259 19.8486 10.1007 19.7729 10.0502 19.7223C9.97445 19.6214 9.87334 19.5455 9.74721 19.5455C8.05528 19.5455 6.54007 18.4343 5.83299 16.8687C5.60576 16.3383 5.45428 15.783 5.42891 15.1768C5.42891 15.1262 5.40372 15.0759 5.40372 15.0505C5.35317 14.9496 5.25223 14.8736 5.12593 14.8485C5.10074 14.8485 5.10074 14.8485 5.07538 14.8233H5.02482C4.87333 14.8233 4.74703 14.9242 4.69648 15.0505C4.67129 15.1011 4.67129 15.1514 4.67129 15.1768C4.67129 15.3031 4.6461 15.4546 4.62074 15.5809C4.62074 15.6061 4.62074 15.6566 4.59555 15.6818C4.57036 15.8081 4.54499 15.9596 4.51981 16.0859C4.49462 16.2122 4.44406 16.3637 4.39351 16.49C4.39351 16.5152 4.36832 16.5405 4.36832 16.5909C4.31776 16.7172 4.26738 16.8435 4.21683 16.9696C3.4592 15.6061 3.0805 14.0657 3.0805 12.4747C3.0805 7.29784 7.2977 3.08064 12.4745 3.08064C13.9898 3.08064 15.4796 3.45936 16.818 4.14125C16.7928 4.16644 16.7674 4.19181 16.7674 4.19181C16.7422 4.217 16.7169 4.26755 16.6665 4.29274C16.6159 4.31793 16.5907 4.36849 16.5402 4.39368C16.515 4.41887 16.4644 4.44423 16.4393 4.46942C16.3887 4.49461 16.3635 4.54517 16.313 4.57036C16.2878 4.59554 16.2372 4.62091 16.212 4.6461C16.1615 4.67129 16.1111 4.72185 16.0605 4.74704C16.0353 4.77222 16.01 4.79759 15.9848 4.82278C15.909 4.87333 15.8585 4.92371 15.7827 4.94908L15.7576 4.97427C15.6818 5.02482 15.6061 5.0752 15.505 5.12576C15.4798 5.15095 15.4544 5.15095 15.4292 5.17631C15.3787 5.2015 15.3283 5.22687 15.2524 5.25206C15.2272 5.27725 15.1766 5.27725 15.1514 5.30261C15.1009 5.3278 15.0505 5.35317 14.9999 5.37836C14.9494 5.40355 14.9242 5.40355 14.8736 5.42891C14.8231 5.4541 14.7727 5.47947 14.7221 5.47947C14.6716 5.50466 14.6464 5.50466 14.5958 5.53002C14.5453 5.55521 14.4949 5.55521 14.4444 5.58058C14.3938 5.58058 14.3686 5.60577 14.3181 5.60577C14.2675 5.63096 14.2171 5.63096 14.1666 5.65632C14.116 5.65632 14.0908 5.68151 14.0403 5.68151C13.9897 5.68151 13.9393 5.7067 13.8634 5.7067C13.8129 5.7067 13.7877 5.73189 13.7371 5.73189C13.6866 5.73189 13.6108 5.75708 13.5603 5.75708C13.5097 5.75708 13.4845 5.75708 13.434 5.78227C13.3582 5.78227 13.3077 5.78227 13.2319 5.80746H13.131H12.828C12.626 5.80746 12.4493 5.98431 12.4493 6.18617C12.4493 6.38822 12.6261 6.56489 12.828 6.56489C15.8583 6.56489 18.3078 9.01441 18.3078 12.0447C18.3078 12.2468 18.4847 12.4235 18.6866 12.4235C18.8886 12.4235 19.0653 12.2466 19.0653 12.0447V11.7418V11.6408C19.0653 11.5651 19.0653 11.5145 19.0905 11.4388C19.0905 11.3882 19.0905 11.363 19.1157 11.3125C19.1157 11.2619 19.1408 11.1862 19.1408 11.1356C19.1408 11.0851 19.166 11.0599 19.166 11.0093C19.166 10.9588 19.1912 10.9084 19.1912 10.8325C19.1912 10.7819 19.2164 10.7567 19.2164 10.7062C19.2416 10.6556 19.2416 10.6052 19.267 10.5547C19.267 10.5041 19.2922 10.4789 19.2922 10.4284C19.3173 10.3778 19.3173 10.3274 19.3427 10.2769C19.3679 10.2263 19.3679 10.2011 19.3933 10.1506C19.4185 10.1 19.4438 10.0497 19.4438 9.9991C19.469 9.97391 19.469 9.92336 19.4944 9.89817C19.5196 9.84761 19.5449 9.79723 19.5701 9.74668C19.5953 9.72149 19.5953 9.67093 19.6207 9.64574C19.6459 9.59519 19.6712 9.51944 19.7216 9.46889C19.7468 9.4437 19.7468 9.41833 19.7722 9.39314C19.8227 9.3174 19.8731 9.21629 19.9237 9.14054V9.11536C19.9742 9.03961 20.0246 8.96387 20.0751 8.88812C20.1003 8.86293 20.1003 8.83757 20.1257 8.81238C20.1763 8.76182 20.2014 8.71144 20.252 8.66089C20.2772 8.6357 20.3026 8.61033 20.3277 8.55995C20.3529 8.5094 20.4035 8.45902 20.4287 8.43365C20.4539 8.40847 20.4792 8.3831 20.5044 8.33272L20.6307 8.20642C20.6559 8.18123 20.6813 8.15586 20.7317 8.10549C20.7568 8.0803 20.7822 8.05493 20.8074 8.05493C21.5145 9.39333 21.868 10.8832 21.868 12.3984C21.8687 14.0405 21.49 15.5303 20.7828 16.8941L20.7828 16.8941ZM20.6566 7.24755C19.7727 7.97979 19.091 8.91427 18.7121 9.94968C18.0808 8.23259 16.7172 6.86885 15 6.23753C16.0354 5.85881 16.9948 5.20212 17.7021 4.29303C18.1314 3.76263 18.4849 3.1567 18.7121 2.49999C19.3434 4.21709 20.707 5.60603 22.4495 6.23735C21.8182 6.46476 21.2122 6.8183 20.6566 7.24755Z"/>
    </mask>
    <path d="M10.1263 7.80293C9.26774 7.80293 8.56066 7.09585 8.56066 6.23731C8.56066 6.03526 8.3838 5.85859 8.18194 5.85859C7.9799 5.85859 7.80322 6.03544 7.80322 6.23731C7.80322 7.09585 7.09615 7.80293 6.2376 7.80293C6.03555 7.80293 5.85888 7.97978 5.85888 8.18165C5.85888 8.38369 6.03573 8.56037 6.2376 8.56037C7.09615 8.56037 7.80322 9.26744 7.80322 10.126C7.80322 10.328 7.98008 10.5047 8.18194 10.5047C8.38398 10.5047 8.56066 10.3279 8.56066 10.126C8.56066 9.26744 9.26774 8.56037 10.1263 8.56037C10.3283 8.56037 10.505 8.38351 10.505 8.18165C10.505 7.97978 10.3281 7.80293 10.1263 7.80293ZM8.18178 8.86354C8.00492 8.58575 7.77769 8.35853 7.49991 8.18167C7.7777 8.00482 8.00492 7.77759 8.18178 7.49981C8.35863 7.7776 8.58586 8.00482 8.86365 8.18167C8.58586 8.35853 8.35846 8.61112 8.18178 8.86354ZM16.7677 14.8484C15.5051 14.8484 14.4697 13.8636 14.4193 12.6009C14.4193 12.3989 14.2678 12.2474 14.0658 12.2474C13.8637 12.2474 13.6617 12.3989 13.6617 12.6009C13.6111 13.8636 12.5759 14.8484 11.3384 14.8484H11.3132C11.1112 14.8484 10.9345 15.0253 10.9345 15.2272C10.9345 15.4292 11.1114 15.6059 11.3132 15.6059C12.6011 15.6059 13.6616 16.6665 13.6616 17.9543V18.0552C13.6616 18.1562 13.6868 18.2573 13.7626 18.333C13.8383 18.4088 13.9394 18.4593 14.0404 18.4593C14.1413 18.4593 14.2424 18.4088 14.3182 18.333C14.3939 18.2573 14.4191 18.1562 14.4191 18.0552V17.9543C14.4191 16.6664 15.4545 15.6059 16.7423 15.6059H16.7675C16.9696 15.6059 17.1463 15.429 17.1463 15.2272C17.1466 15.0253 16.9949 14.8484 16.7677 14.8484H16.7677ZM14.0404 16.49C13.7626 15.9596 13.3082 15.5303 12.803 15.2525C13.3334 14.9747 13.7626 14.5455 14.0404 14.0151C14.3182 14.5455 14.7726 14.9747 15.2778 15.2525C14.7728 15.5303 14.3182 15.9596 14.0404 16.49ZM24.596 5.85856C21.5658 5.85856 19.1162 3.40905 19.1162 0.378719C19.1162 0.176674 18.9394 0 18.7375 0C18.5353 0 18.3586 0.151489 18.3586 0.378719C18.3586 1.51505 17.9799 2.65137 17.3232 3.58586C15.8333 2.77768 14.1666 2.34843 12.4747 2.34843C6.86856 2.34843 2.32307 6.89392 2.32307 12.5C2.32307 14.3434 2.82808 16.1616 3.78773 17.7273C2.97955 18.8637 1.71691 19.5455 0.403908 19.5455H0.378719C0.176674 19.5455 0 19.7224 0 19.9243C0 20.1263 0.176855 20.303 0.378719 20.303C2.80307 20.303 4.69702 22.1969 4.69702 24.6213C4.69702 24.8233 4.87388 25 5.07574 25C5.27779 25 5.45446 24.8231 5.45446 24.6213C5.45446 23.2323 6.11099 21.9445 7.19694 21.1364C8.78791 22.1212 10.6313 22.6516 12.5 22.6516C15.3283 22.6516 18.0051 21.4899 19.9243 19.4193V19.5456C19.9243 19.7476 20.1012 19.9243 20.303 19.9243C20.5051 19.9243 20.6818 19.7474 20.6818 19.5456C20.6818 18.889 21.2122 18.3587 21.8686 18.3587C22.0707 18.3587 22.2474 18.1818 22.2474 17.98C22.2474 17.7779 22.0705 17.6012 21.8686 17.6012C21.6918 17.6012 21.4899 17.5507 21.3382 17.4749C22.1968 15.9597 22.6514 14.2678 22.6514 12.5002C22.6514 10.8082 22.2221 9.14155 21.414 7.65164C22.3483 6.99511 23.4594 6.61623 24.6211 6.61623C24.8232 6.61623 24.9999 6.43938 24.9999 6.23751C25 6.03529 24.798 5.85844 24.5959 5.85844L24.596 5.85856ZM5.05044 22.6769C4.54543 21.4142 3.53519 20.4042 2.27255 19.899C3.18165 19.4949 3.98965 18.8384 4.57059 17.9293C4.77264 17.6263 4.92412 17.298 5.0756 16.9696C5.3282 17.6262 5.70692 18.2071 6.16138 18.6867L6.18657 18.7119H6.21176C6.6916 19.2169 7.24716 19.5958 7.87848 19.8736C7.5755 19.9999 7.27237 20.1514 6.96938 20.3281C6.08581 20.9344 5.42933 21.7425 5.0504 22.6769L5.05044 22.6769ZM20.3031 18.384C20.2779 18.3334 20.2273 18.3082 20.2022 18.2577C20.177 18.2325 20.1516 18.2071 20.1264 18.1819C20.0507 18.1062 19.9749 18.0304 19.8738 17.9799C20.0253 17.8536 20.1768 17.7273 20.2779 17.5758C20.3536 17.6767 20.4547 17.7778 20.5557 17.8788C20.6062 17.904 20.6314 17.9545 20.682 17.9797C20.5555 18.081 20.404 18.2325 20.3031 18.384ZM20.7828 16.8941C20.7576 16.8435 20.7322 16.7678 20.7322 16.7172C20.7322 16.692 20.707 16.692 20.707 16.6667C20.6818 16.5909 20.6818 16.4898 20.6818 16.4141C20.6818 16.212 20.505 16.0354 20.3031 16.0354C20.1011 16.0354 19.9244 16.2122 19.9244 16.4141C19.9244 17.0706 19.394 17.601 18.7375 17.601C18.5355 17.601 18.3588 17.7778 18.3588 17.9797C18.3588 18.1817 18.5356 18.3584 18.7375 18.3584C18.8132 18.3584 18.8638 18.3584 18.9395 18.3836H18.9901C19.0658 18.4088 19.1164 18.4088 19.1921 18.4341H19.2173C19.2679 18.4593 19.3183 18.4847 19.3688 18.5099C19.394 18.5099 19.394 18.5351 19.4194 18.5351C19.4699 18.5603 19.5203 18.6108 19.5709 18.6614C17.7778 20.7068 15.2274 21.8685 12.5001 21.8685C10.8839 21.8685 9.31831 21.4644 7.92936 20.6816C8.05566 20.6311 8.18196 20.5807 8.30808 20.5301C8.33327 20.5301 8.38383 20.505 8.40902 20.505C8.53532 20.4544 8.66162 20.4292 8.78773 20.404H8.81292C8.93922 20.3788 9.09071 20.3535 9.21701 20.3283H9.31794C9.44424 20.3283 9.57054 20.3031 9.69666 20.3031H9.74722C9.94926 20.3031 10.1259 20.1262 10.1259 19.9244C10.1259 19.8486 10.1007 19.7729 10.0502 19.7223C9.97445 19.6214 9.87334 19.5455 9.74721 19.5455C8.05528 19.5455 6.54007 18.4343 5.83299 16.8687C5.60576 16.3383 5.45428 15.783 5.42891 15.1768C5.42891 15.1262 5.40372 15.0759 5.40372 15.0505C5.35317 14.9496 5.25223 14.8736 5.12593 14.8485C5.10074 14.8485 5.10074 14.8485 5.07538 14.8233H5.02482C4.87333 14.8233 4.74703 14.9242 4.69648 15.0505C4.67129 15.1011 4.67129 15.1514 4.67129 15.1768C4.67129 15.3031 4.6461 15.4546 4.62074 15.5809C4.62074 15.6061 4.62074 15.6566 4.59555 15.6818C4.57036 15.8081 4.54499 15.9596 4.51981 16.0859C4.49462 16.2122 4.44406 16.3637 4.39351 16.49C4.39351 16.5152 4.36832 16.5405 4.36832 16.5909C4.31776 16.7172 4.26738 16.8435 4.21683 16.9696C3.4592 15.6061 3.0805 14.0657 3.0805 12.4747C3.0805 7.29784 7.2977 3.08064 12.4745 3.08064C13.9898 3.08064 15.4796 3.45936 16.818 4.14125C16.7928 4.16644 16.7674 4.19181 16.7674 4.19181C16.7422 4.217 16.7169 4.26755 16.6665 4.29274C16.6159 4.31793 16.5907 4.36849 16.5402 4.39368C16.515 4.41887 16.4644 4.44423 16.4393 4.46942C16.3887 4.49461 16.3635 4.54517 16.313 4.57036C16.2878 4.59554 16.2372 4.62091 16.212 4.6461C16.1615 4.67129 16.1111 4.72185 16.0605 4.74704C16.0353 4.77222 16.01 4.79759 15.9848 4.82278C15.909 4.87333 15.8585 4.92371 15.7827 4.94908L15.7576 4.97427C15.6818 5.02482 15.6061 5.0752 15.505 5.12576C15.4798 5.15095 15.4544 5.15095 15.4292 5.17631C15.3787 5.2015 15.3283 5.22687 15.2524 5.25206C15.2272 5.27725 15.1766 5.27725 15.1514 5.30261C15.1009 5.3278 15.0505 5.35317 14.9999 5.37836C14.9494 5.40355 14.9242 5.40355 14.8736 5.42891C14.8231 5.4541 14.7727 5.47947 14.7221 5.47947C14.6716 5.50466 14.6464 5.50466 14.5958 5.53002C14.5453 5.55521 14.4949 5.55521 14.4444 5.58058C14.3938 5.58058 14.3686 5.60577 14.3181 5.60577C14.2675 5.63096 14.2171 5.63096 14.1666 5.65632C14.116 5.65632 14.0908 5.68151 14.0403 5.68151C13.9897 5.68151 13.9393 5.7067 13.8634 5.7067C13.8129 5.7067 13.7877 5.73189 13.7371 5.73189C13.6866 5.73189 13.6108 5.75708 13.5603 5.75708C13.5097 5.75708 13.4845 5.75708 13.434 5.78227C13.3582 5.78227 13.3077 5.78227 13.2319 5.80746H13.131H12.828C12.626 5.80746 12.4493 5.98431 12.4493 6.18617C12.4493 6.38822 12.6261 6.56489 12.828 6.56489C15.8583 6.56489 18.3078 9.01441 18.3078 12.0447C18.3078 12.2468 18.4847 12.4235 18.6866 12.4235C18.8886 12.4235 19.0653 12.2466 19.0653 12.0447V11.7418V11.6408C19.0653 11.5651 19.0653 11.5145 19.0905 11.4388C19.0905 11.3882 19.0905 11.363 19.1157 11.3125C19.1157 11.2619 19.1408 11.1862 19.1408 11.1356C19.1408 11.0851 19.166 11.0599 19.166 11.0093C19.166 10.9588 19.1912 10.9084 19.1912 10.8325C19.1912 10.7819 19.2164 10.7567 19.2164 10.7062C19.2416 10.6556 19.2416 10.6052 19.267 10.5547C19.267 10.5041 19.2922 10.4789 19.2922 10.4284C19.3173 10.3778 19.3173 10.3274 19.3427 10.2769C19.3679 10.2263 19.3679 10.2011 19.3933 10.1506C19.4185 10.1 19.4438 10.0497 19.4438 9.9991C19.469 9.97391 19.469 9.92336 19.4944 9.89817C19.5196 9.84761 19.5449 9.79723 19.5701 9.74668C19.5953 9.72149 19.5953 9.67093 19.6207 9.64574C19.6459 9.59519 19.6712 9.51944 19.7216 9.46889C19.7468 9.4437 19.7468 9.41833 19.7722 9.39314C19.8227 9.3174 19.8731 9.21629 19.9237 9.14054V9.11536C19.9742 9.03961 20.0246 8.96387 20.0751 8.88812C20.1003 8.86293 20.1003 8.83757 20.1257 8.81238C20.1763 8.76182 20.2014 8.71144 20.252 8.66089C20.2772 8.6357 20.3026 8.61033 20.3277 8.55995C20.3529 8.5094 20.4035 8.45902 20.4287 8.43365C20.4539 8.40847 20.4792 8.3831 20.5044 8.33272L20.6307 8.20642C20.6559 8.18123 20.6813 8.15586 20.7317 8.10549C20.7568 8.0803 20.7822 8.05493 20.8074 8.05493C21.5145 9.39333 21.868 10.8832 21.868 12.3984C21.8687 14.0405 21.49 15.5303 20.7828 16.8941L20.7828 16.8941ZM20.6566 7.24755C19.7727 7.97979 19.091 8.91427 18.7121 9.94968C18.0808 8.23259 16.7172 6.86885 15 6.23753C16.0354 5.85881 16.9948 5.20212 17.7021 4.29303C18.1314 3.76263 18.4849 3.1567 18.7121 2.49999C19.3434 4.21709 20.707 5.60603 22.4495 6.23735C21.8182 6.46476 21.2122 6.8183 20.6566 7.24755Z"
          stroke-width="4" mask="url(#path-1-inside-1_816_739)"/>
</svg>
