<svg width="22" height="25" viewBox="0 0 22 25" fill="none" xmlns="http://www.w3.org/2000/svg">
<path d="M10.625 25.0002C8.21234 25.0002 6.25 23.2203 6.25 21.0319C6.25 20.5938 6.642 20.2383 7.125 20.2383C7.608 20.2383 8 20.5938 8 21.0319C8 22.3453 9.17706 23.4129 10.625 23.4129C12.0727 23.4129 13.25 22.3453 13.25 21.0319C13.25 20.5938 13.642 20.2383 14.125 20.2383C14.608 20.2383 15 20.5938 15 21.0319C15 23.2203 13.0377 25.0002 10.625 25.0002Z" fill="#212121"/>
<path fill-rule="evenodd" clip-rule="evenodd" d="M0 19.6924C0 20.6497 0.834031 21.4284 1.8595 21.4284H19.3907C20.416 21.4284 21.25 20.6497 21.25 19.6924C21.25 19.1843 21.013 18.7033 20.5891 18.366C18.9837 17.098 18.0625 15.245 18.0625 13.2817V10.5157C18.0625 6.68644 14.7262 3.57129 10.6251 3.57129C6.52381 3.57129 3.18749 6.68644 3.18749 10.5157V13.2817C3.18749 15.245 2.2663 17.098 0.650377 18.3729C0.236961 18.7033 0 19.1843 0 19.6924ZM4.78124 10.5157C4.78124 7.50679 7.40239 5.05938 10.6251 5.05938C13.8476 5.05938 16.4688 7.50679 16.4688 10.5157V13.2817C16.4688 15.6833 17.596 17.9512 19.5627 19.5038C19.5979 19.5316 19.6563 19.5932 19.6563 19.6924C19.6563 19.8272 19.5351 19.9403 19.3907 19.9403H1.8595C1.71495 19.9403 1.59375 19.8272 1.59375 19.6924C1.59375 19.5932 1.6523 19.5316 1.68946 19.5018C3.65402 17.9512 4.78124 15.6833 4.78124 13.2817V10.5157Z" fill="#212121"/>
<path d="M10 4.7619C9.31 4.7619 8.75 4.40635 8.75 3.96825V0.793651C8.75 0.355554 9.31 0 10 0C10.69 0 11.25 0.355554 11.25 0.793651V3.96825C11.25 4.40635 10.69 4.7619 10 4.7619Z" fill="#212121"/>
</svg>
