<svg width="47" height="49" viewBox="0 0 47 49" fill="#00000" xmlns="http://www.w3.org/2000/svg">
    <path d="M46.8078 28.6263L40.949 21.0199V20.9686C40.8461 20.8145 40.6407 20.6603 40.4349 20.6087L31.4412 17.4737C33.0859 15.6236 34.0621 13.2081 34.0621 10.5355C34.0621 4.72805 29.334 0 23.5266 0C17.7195 0.000358465 12.9911 4.72841 12.9911 10.5355C12.9911 13.208 13.9676 15.6235 15.612 17.4737L6.61827 20.6087C6.41286 20.66 6.25835 20.8141 6.1042 20.9686L0.245785 28.626C0.0403701 28.883 -0.0625168 29.2942 0.0403697 29.6025C0.143256 29.9624 0.400294 30.2191 0.759851 30.322L5.84783 32.1209L5.84747 41.8846C5.84747 42.3471 6.15577 42.7583 6.56695 42.9124L23.1154 48.7199C23.2183 48.7712 23.3725 48.7712 23.4754 48.7712C23.5782 48.7712 23.7324 48.7712 23.8353 48.7199L40.3838 42.9124C40.8462 42.7583 41.1032 42.3471 41.1032 41.8846L41.1029 32.12L46.1909 30.3211C46.5508 30.2182 46.8075 29.9099 46.9103 29.6016C47.0645 29.242 47.0132 28.8821 46.8075 28.6254L46.8078 28.6263ZM15.2012 10.536C15.2012 5.96207 18.9528 2.21049 23.5267 2.21049C28.1007 2.21013 31.8523 5.96207 31.8523 10.536C31.8523 15.11 28.1007 18.8616 23.5267 18.8616C18.9528 18.8616 15.2012 15.1613 15.2012 10.536ZM2.96971 28.7291L7.3895 22.9732L22.2934 28.2153L19.2613 34.4853L2.96971 28.7291ZM22.3962 46.1512L8.10899 41.1148V32.8918L19.5182 36.9004C19.6211 36.9517 19.7752 36.9517 19.8781 36.9517C20.2893 36.9517 20.7005 36.6947 20.8547 36.3351L22.3966 33.0973L22.3962 46.1512ZM23.5268 26.3136L10.3189 21.6885L17.4625 19.1701C19.1584 20.4036 21.2656 21.0716 23.5266 21.0716C25.788 21.0716 27.8436 20.3521 29.5908 19.1701L36.7344 21.6885L23.5268 26.3136ZM38.9447 41.1147L24.6061 46.1512V33.0974L26.148 36.3352C26.3534 36.7464 26.7133 36.9518 27.1245 36.9518C27.2274 36.9518 27.3816 36.9518 27.4844 36.9006L38.945 32.8915L38.9447 41.1147ZM27.741 34.4853L24.709 28.2153L39.6129 22.9732L44.084 28.7291L27.741 34.4853Z"/>
</svg>
