<svg width="37" height="30" viewBox="0 0 37 30" fill="#00000" xmlns="http://www.w3.org/2000/svg">
    <path d="M31.3148 19.5801C30.778 19.345 30.1525 19.5906 29.9179 20.1284C27.8656 24.8337 23.2291 27.8741 18.1057 27.8741C11.7758 27.8741 6.4111 23.1697 5.39484 17.0703L8.20875 18.954C8.69591 19.2801 9.35472 19.1488 9.68028 18.6607C10.0058 18.1726 9.8747 17.5126 9.38754 17.1864L4.74911 14.0814C4.51514 13.9248 4.2287 13.8679 3.95273 13.9227C3.67676 13.9777 3.43395 14.1403 3.27758 14.3747L0.178853 19.0217C-0.146628 19.5098 -0.015502 20.1699 0.47166 20.496C0.652719 20.6172 0.857471 20.6752 1.06003 20.6752C1.40242 20.6752 1.73865 20.5093 1.94312 20.2027L3.40658 18.0081C4.0021 20.9218 5.4493 23.5946 7.6155 25.7164C10.4356 28.4786 14.1611 29.9999 18.1057 29.9999C24.0725 29.9999 29.4723 26.4592 31.8622 20.9796C32.0969 20.4417 31.8518 19.8151 31.3148 19.5801Z"/>
    <path d="M35.6259 9.50413C35.1386 9.17805 34.4799 9.30935 34.1544 9.79741L32.6908 11.9919C32.0953 9.07814 30.6481 6.40539 28.4819 4.28356C25.6618 1.52131 21.9363 0 17.9916 0C12.025 0 6.62522 3.54076 4.23526 9.02032C4.00066 9.5582 4.24573 10.1848 4.78261 10.4198C5.31949 10.6549 5.94491 10.4093 6.17958 9.87146C8.23183 5.16623 12.8683 2.12573 17.9917 2.12573C24.3215 2.12573 29.6861 6.83018 30.7025 12.9295L27.8886 11.046C27.4014 10.7198 26.7427 10.8512 26.4171 11.3393C26.0916 11.8274 26.2227 12.4875 26.7099 12.8135L31.3482 15.9184C31.5292 16.0396 31.734 16.0976 31.9365 16.0976C32.279 16.0976 32.6151 15.9318 32.8196 15.6251L35.9186 10.9785C36.2441 10.4903 36.113 9.83022 35.6259 9.50413Z"/>
</svg>
