<svg width="29" height="25" viewBox="0 0 29 25" fill="none" xmlns="http://www.w3.org/2000/svg">
<path fill-rule="evenodd" clip-rule="evenodd" d="M13.1063 24.5918C13.4102 24.8551 13.8001 25 14.2045 25C14.6088 25 14.9989 24.8551 15.3026 24.5922C16.4528 23.5973 17.561 22.663 18.539 21.8389L18.5394 21.8386C21.4009 19.4264 23.8721 17.3433 25.5916 15.2909C27.5139 12.9967 28.4091 10.8214 28.4091 8.44489C28.4091 6.13595 27.6089 4.00581 26.1556 2.44657C24.685 0.868907 22.6669 0 20.473 0C18.8331 0 17.3313 0.512812 16.0094 1.52407C15.342 2.03452 14.7375 2.65925 14.2045 3.38794C13.6718 2.65925 13.0671 2.03452 12.3999 1.52407C11.078 0.512812 9.57619 0 7.9363 0C5.7422 0 3.72431 0.868907 2.25371 2.44657C0.800436 4.00581 0 6.13595 0 8.44489C0 10.8214 0.89537 12.9967 2.81767 15.2911C4.53732 17.3434 7.00886 19.4268 9.87096 21.8393L9.87595 21.8436C10.8522 22.6664 11.9586 23.5992 13.1063 24.5918ZM3.47701 3.56224C4.629 2.32652 6.21254 1.64606 7.9363 1.64606C9.19884 1.64606 10.3582 2.0431 11.3819 2.82604C12.2944 3.52408 12.9299 4.40649 13.3022 5.02393C13.4938 5.34143 13.8311 5.53095 14.2045 5.53095C14.578 5.53095 14.9152 5.34143 15.1069 5.02393C15.4794 4.40649 16.1149 3.52408 17.0272 2.82604C18.0509 2.0431 19.2103 1.64606 20.473 1.64606C22.1966 1.64606 23.7803 2.32652 24.9321 3.56224C26.1012 4.81661 26.7451 6.55057 26.7451 8.44489C26.7451 10.4436 25.9941 12.2312 24.3105 14.2408C22.6844 16.1816 20.2667 18.2198 17.4672 20.5798L17.4596 20.5862C16.4778 21.4135 15.3652 22.3515 14.2022 23.3533C13.046 22.3534 11.9352 21.417 10.9553 20.5909L10.9501 20.5866L10.9485 20.5852C8.14623 18.2231 5.72606 16.183 4.09885 14.2408C2.41496 12.2312 1.66394 10.4436 1.66394 8.44489C1.66394 6.55057 2.30789 4.81661 3.47701 3.56224Z" fill="#212121"/>
</svg>
