<svg width="60" height="24" viewBox="0 0 60 24" fill="" xmlns="http://www.w3.org/2000/svg">
    <path d="M16.5917 11.647C16.6913 11.647 16.789 11.6196 16.8847 11.5669C16.9784 11.5142 17.0448 11.4497 17.0839 11.3735L17.0722 10.1743C16.9647 10.4458 16.7851 10.5825 16.5331 10.5825C16.4257 10.5825 16.328 10.5317 16.2499 10.4673C16.1366 10.3755 16.0136 10.2583 15.8124 10.2583H15.8046V10.2349H15.8397C16.0448 10.2349 16.2265 10.2075 16.3847 10.1548C16.5429 10.1021 16.6698 10.02 16.7655 9.90674C16.8612 9.79541 16.9081 9.66064 16.9081 9.50244C16.9081 9.34814 16.8593 9.21729 16.7616 9.10596C16.5643 8.88721 16.2323 8.78564 15.8163 8.78564H14.1171C14.1776 9.05322 14.2089 9.39111 14.2089 9.79932V10.5747C14.2089 10.981 14.1776 11.3188 14.1171 11.5864H15.2128C15.1522 11.3188 15.121 10.981 15.121 10.5747V10.4106C15.1561 10.397 15.2128 10.3911 15.2929 10.3911C15.6093 10.3911 15.7128 10.6392 15.8163 10.9146C15.9413 11.2583 16.0624 11.6489 16.5917 11.647ZM15.121 9.65088H15.6561C15.8456 9.65088 15.9804 9.74072 15.9804 9.87939C15.9804 10.0278 15.8476 10.1099 15.6366 10.1099H15.121V9.65088ZM18.4198 12.3872C18.3905 12.2642 18.369 12.1099 18.3515 11.9224C18.3339 11.7329 18.3261 11.5513 18.3261 11.3735V11.0864H18.3788C18.5038 11.4243 18.7968 11.6431 19.2186 11.6431C19.5292 11.6431 19.7772 11.5259 19.9276 11.3306C20.0761 11.1372 20.1542 10.8853 20.1542 10.5903C20.1542 10.2954 20.0761 10.0396 19.9276 9.84424C19.7772 9.64893 19.5292 9.52979 19.2186 9.52979C18.7987 9.52979 18.5175 9.74463 18.3788 10.0786H18.3261V10.0298C18.3261 9.9458 18.3319 9.87354 18.3456 9.81299C18.3573 9.75244 18.3808 9.67627 18.414 9.58643H17.3222C17.3515 9.70947 17.3768 9.86377 17.3944 10.0493C17.412 10.2349 17.4198 10.4185 17.4198 10.5981V11.3735C17.4198 11.5532 17.412 11.7368 17.3944 11.9243C17.3768 12.1099 17.3515 12.2642 17.3222 12.3872H18.4198ZM18.8183 11.0747C18.6757 11.0747 18.5604 11.0278 18.4726 10.9321C18.3847 10.8364 18.3397 10.7231 18.3397 10.5903C18.3397 10.4478 18.3827 10.3286 18.4706 10.2368C18.5565 10.145 18.6718 10.0981 18.8183 10.0981C18.9686 10.0981 19.0878 10.1431 19.1796 10.2349C19.2694 10.3267 19.3143 10.4458 19.3143 10.5903C19.3143 10.731 19.2694 10.8462 19.1796 10.938C19.0878 11.0298 18.9686 11.0747 18.8183 11.0747Z"/>
    <path d="M26.8673 3.59287C26.57 3.62276 26.3441 3.87432 26.3449 4.17397V22.5781C26.3456 22.8983 26.6036 23.1579 26.9228 23.1592H59.4174C59.5715 23.1597 59.7194 23.0989 59.8287 22.9898C59.9381 22.8809 59.9997 22.7327 60 22.5781V4.17397C59.9997 4.01934 59.9381 3.8712 59.8287 3.76232C59.7194 3.65317 59.5715 3.59235 59.4174 3.59287H26.9228C26.9044 3.59209 26.8857 3.59209 26.8673 3.59287ZM43.1698 6.45911C39.3701 6.45911 36.2783 9.56499 36.2783 13.3775C36.2783 17.1903 39.3702 20.2927 43.1698 20.2927C46.9693 20.2927 50.0613 17.1902 50.0613 13.3775C50.0613 9.56479 46.9693 6.45911 43.1698 6.45911ZM43.1698 7.62444C46.342 7.62444 48.9055 10.1939 48.9055 13.3775C48.9055 16.5613 46.342 19.1271 43.1698 19.1271C39.9975 19.1271 37.4386 16.5611 37.4386 13.3775C37.4386 10.1937 39.9975 7.62444 43.1698 7.62444Z"/>
    <path d="M0.520551 0.000590478C0.224272 0.0307699 -0.000771019 0.284803 1.98536e-06 0.587384V19.1719C0.000776245 19.4952 0.257822 19.7574 0.575778 19.7587H32.9495C33.103 19.7592 33.2504 19.6978 33.3593 19.5876C33.4682 19.4776 33.5296 19.328 33.5299 19.1719V0.587384C33.5296 0.43124 33.4682 0.281653 33.3593 0.171696C33.2504 0.0614777 33.103 6.64596e-05 32.9495 0.000590478H0.575778C0.557454 -0.000196826 0.538875 -0.000196826 0.520551 0.000590478ZM1.15621 1.17735L32.3724 1.17761V18.5864H1.15621V1.17735ZM16.7623 2.89492C12.9768 2.89492 9.89644 6.03123 9.89644 9.88115C9.89644 13.7313 12.9769 16.864 16.7623 16.864C20.5477 16.864 23.6282 13.7311 23.6282 9.88115C23.6282 6.03103 20.5477 2.89492 16.7623 2.89492ZM16.7623 4.07167C19.9228 4.07167 22.4767 6.6663 22.4767 9.88109C22.4767 13.0961 19.9228 15.6871 16.7623 15.6871C13.6018 15.6871 11.0525 13.0959 11.0525 9.88109C11.0525 6.6661 13.6018 4.07167 16.7623 4.07167Z"/>
    <circle cx="43.1099" cy="13.1727" r="6.58623" fill="white"/>
    <path d="M42.3377 15.2393C42.4373 15.2393 42.5349 15.2119 42.6306 15.1592C42.7244 15.1064 42.7908 15.042 42.8299 14.9658L42.8181 13.7666C42.7107 14.0381 42.531 14.1748 42.2791 14.1748C42.1716 14.1748 42.074 14.124 41.9959 14.0596C41.8826 13.9678 41.7595 13.8506 41.5584 13.8506H41.5506V13.8271H41.5857C41.7908 13.8271 41.9724 13.7998 42.1306 13.7471C42.2888 13.6943 42.4158 13.6123 42.5115 13.499C42.6072 13.3877 42.6541 13.2529 42.6541 13.0947C42.6541 12.9404 42.6052 12.8096 42.5076 12.6982C42.3103 12.4795 41.9783 12.3779 41.5623 12.3779H39.8631C39.9236 12.6455 39.9549 12.9834 39.9549 13.3916V14.167C39.9549 14.5732 39.9236 14.9111 39.8631 15.1787H40.9588C40.8982 14.9111 40.867 14.5732 40.867 14.167V14.0029C40.9021 13.9893 40.9588 13.9834 41.0388 13.9834C41.3552 13.9834 41.4588 14.2314 41.5623 14.5068C41.6873 14.8506 41.8084 15.2412 42.3377 15.2393ZM40.867 13.2432H41.4021C41.5916 13.2432 41.7263 13.333 41.7263 13.4717C41.7263 13.6201 41.5935 13.7021 41.3826 13.7021H40.867V13.2432ZM44.1658 15.9795C44.1365 15.8564 44.115 15.7021 44.0974 15.5146C44.0799 15.3252 44.072 15.1436 44.072 14.9658V14.6787H44.1248C44.2498 15.0166 44.5427 15.2354 44.9646 15.2354C45.2752 15.2354 45.5232 15.1182 45.6736 14.9229C45.822 14.7295 45.9002 14.4775 45.9002 14.1826C45.9002 13.8877 45.822 13.6318 45.6736 13.4365C45.5232 13.2412 45.2752 13.1221 44.9646 13.1221C44.5447 13.1221 44.2634 13.3369 44.1248 13.6709H44.072V13.6221C44.072 13.5381 44.0779 13.4658 44.0916 13.4053C44.1033 13.3447 44.1267 13.2686 44.1599 13.1787H43.0681C43.0974 13.3018 43.1228 13.4561 43.1404 13.6416C43.158 13.8271 43.1658 14.0107 43.1658 14.1904V14.9658C43.1658 15.1455 43.158 15.3291 43.1404 15.5166C43.1228 15.7021 43.0974 15.8564 43.0681 15.9795H44.1658ZM44.5642 14.667C44.4216 14.667 44.3064 14.6201 44.2185 14.5244C44.1306 14.4287 44.0857 14.3154 44.0857 14.1826C44.0857 14.04 44.1287 13.9209 44.2166 13.8291C44.3025 13.7373 44.4177 13.6904 44.5642 13.6904C44.7146 13.6904 44.8338 13.7354 44.9256 13.8271C45.0154 13.9189 45.0603 14.0381 45.0603 14.1826C45.0603 14.3232 45.0154 14.4385 44.9256 14.5303C44.8338 14.6221 44.7146 14.667 44.5642 14.667Z"/>
</svg>
