<svg width="31" height="25" viewBox="0 0 31 25" fill="none" xmlns="http://www.w3.org/2000/svg">
    <path fill-rule="evenodd" clip-rule="evenodd"
          d="M30.8133 8.83439C30.8128 8.72396 30.7919 8.61445 30.7515 8.51169V8.42846V8.37638L26.6349 0.553819V0.553586C26.5427 0.377589 26.4026 0.232048 26.231 0.134163C26.0596 0.0365163 25.8641 -0.00952152 25.6675 0.00163826H5.08426C4.89818 0.00210322 4.71555 0.0537172 4.55612 0.1509C4.39647 0.248082 4.26621 0.38735 4.17869 0.55358L0.0620396 8.33448V8.38656V8.46979C0.0216083 8.57255 0.000701589 8.68229 0.000242877 8.79272V21.0941C-0.0110138 22.1047 0.369406 23.0798 1.06016 23.8101C1.7507 24.5402 2.6967 24.9674 3.69487 25H27.0568C28.066 24.9835 29.0274 24.5634 29.7315 23.8315C30.4354 23.0996 30.8243 22.1154 30.8133 21.0941L30.8133 8.83439ZM28.086 7.79281H20.6866L20.2235 2.08508H25.0502L28.086 7.79281ZM15.0263 13.605C15.1384 13.5638 15.2569 13.5427 15.3762 13.5425L15.3762 13.5423C15.6201 13.5392 15.8572 13.6243 16.0451 13.7817V13.782L18.7106 16.1046V8.91766L18.1549 2.0849H13.7913L12.0521 9.00099V16.1153L14.7072 13.8028C14.798 13.714 14.9068 13.6466 15.0263 13.605ZM5.70205 2.08508H11.6606L10.2301 7.82424H2.68667L5.70205 2.08508ZM28.2795 22.3618C28.5979 22.0198 28.769 21.5638 28.7553 21.0942L28.7554 9.9076H20.7691V18.3753C20.7691 18.6423 20.668 18.8989 20.4863 19.0926C20.3048 19.2863 20.0567 19.4018 19.7935 19.4155C19.53 19.4295 19.2715 19.3404 19.071 19.167L15.3764 15.9486L11.6921 19.188C11.6089 19.2661 11.5108 19.3263 11.4038 19.3649H11.3112C11.2349 19.3932 11.1554 19.4107 11.0746 19.417H10.9818C10.8467 19.4121 10.7137 19.3802 10.5908 19.3233C10.4121 19.2396 10.2609 19.1059 10.1552 18.9378C10.0493 18.7699 9.99328 18.5746 9.99397 18.3754V9.90764H1.99709V21.0942C1.98331 21.5639 2.15445 22.0198 2.47285 22.3618C2.79148 22.7035 3.23116 22.9033 3.6952 22.917H27.0572C27.5212 22.9033 27.9609 22.7035 28.2795 22.3618Z"
          fill="#212121"/>
</svg>
