<svg width="25" height="25" viewBox="0 0 25 25" fill="none" xmlns="http://www.w3.org/2000/svg">
    <path fill-rule="evenodd" clip-rule="evenodd"
          d="M17.0455 9.09086C17.0455 11.6012 15.0104 13.6363 12.5 13.6363C9.98966 13.6363 7.95459 11.6012 7.95459 9.09086C7.95459 6.58048 9.98966 4.54541 12.5 4.54541C15.0104 4.54541 17.0455 6.58048 17.0455 9.09086ZM14.7728 9.09086C14.7728 10.3461 13.7553 11.3636 12.5 11.3636C11.2448 11.3636 10.2273 10.3461 10.2273 9.09086C10.2273 7.83567 11.2448 6.81814 12.5 6.81814C13.7553 6.81814 14.7728 7.83567 14.7728 9.09086Z"
          fill="#000000"/>
    <path fill-rule="evenodd" clip-rule="evenodd"
          d="M12.5 0C5.59644 0 0 5.59644 0 12.5C0 19.4035 5.59644 25 12.5 25C19.4035 25 25 19.4035 25 12.5C25 5.59644 19.4035 0 12.5 0ZM2.27273 12.5C2.27273 14.8752 3.08244 17.0614 4.44089 18.7974C6.3096 16.351 9.25713 14.7727 12.5733 14.7727C15.8464 14.7727 18.7605 16.3103 20.6324 18.7026C21.9466 16.9822 22.7273 14.8323 22.7273 12.5C22.7273 6.85164 18.1484 2.27273 12.5 2.27273C6.85164 2.27273 2.27273 6.85164 2.27273 12.5ZM12.5 22.7273C10.0566 22.7273 7.81324 21.8703 6.05417 20.4407C7.49264 18.3877 9.8762 17.0455 12.5733 17.0455C15.2368 17.0455 17.5947 18.3547 19.0384 20.3647C17.2658 21.8399 14.9865 22.7273 12.5 22.7273Z"
          fill="#000000"/>
</svg>
