<svg width="25" height="25" viewBox="0 0 25 25" fill="none" xmlns="http://www.w3.org/2000/svg">
    <path d="M22.5692 8.33246C23.5322 10.6694 23.6557 13.2678 22.9186 15.6859C22.1816 18.1035 20.6295 20.1912 18.5266 21.5935C16.4239 22.9958 13.8999 23.626 11.3846 23.3772C8.86925 23.1283 6.51784 22.0155 4.73044 20.2282C2.94319 18.441 1.83034 16.0896 1.5815 13.5741C1.33265 11.0588 1.96291 8.53497 3.36518 6.43206C4.76769 4.3291 6.85529 2.77699 9.27281 2.04009C11.6907 1.30294 14.2892 1.42649 16.6262 2.38953C16.807 1.88811 17.071 1.42081 17.4071 1.00746C14.738 -0.13401 11.755 -0.310516 8.96985 0.508389C6.18486 1.32726 3.77206 3.09022 2.14555 5.49473C0.518945 7.8991 -0.219559 10.7949 0.0567467 13.6845C0.333052 16.5741 1.6069 19.2774 3.65966 21.3301C5.71222 23.3826 8.41558 24.6565 11.3052 24.9328C14.1949 25.2091 17.0909 24.4706 19.495 22.8442C21.8994 21.2176 23.6625 18.8046 24.4811 16.0194C25.3 13.2344 25.1236 10.2513 23.9823 7.58213C23.5569 7.91021 23.0791 8.16376 22.5688 8.33183L22.5692 8.33246Z"
          fill="#212121"/>
    <path d="M8.60669 19.1321C8.5255 19.1339 8.44608 19.1092 8.38019 19.0617C8.25646 18.9764 8.19272 18.8276 8.21626 18.6792L8.9269 14.3529L5.93604 11.2918C5.84897 11.1941 5.81661 11.0592 5.85015 10.9327C5.89525 10.7964 6.01271 10.697 6.15469 10.6748L10.27 10.0422L12.1129 6.13774V6.13794C12.1733 5.99753 12.3116 5.90674 12.4643 5.90674C12.6171 5.90674 12.7553 5.99753 12.8157 6.13794L14.6587 10.0424L18.774 10.675V10.6748C18.9159 10.697 19.0334 10.7964 19.0785 10.9327C19.1269 11.071 19.0938 11.2247 18.9926 11.3308L16.0017 14.3919L16.7124 18.7182C16.7359 18.8666 16.6722 19.0155 16.5485 19.101C16.4826 19.1482 16.4032 19.1729 16.322 19.1712C16.2567 19.1706 16.1925 19.1545 16.1345 19.1243L12.4644 17.0549L8.79424 19.0852C8.73619 19.1154 8.67207 19.1315 8.60677 19.1321L8.60669 19.1321Z"
          fill="#212121"/>
    <path d="M24.9588 3.90467C24.9588 6.06094 23.2106 7.80914 21.0541 7.80914C18.8979 7.80914 17.1497 6.06094 17.1497 3.90467C17.1497 1.74819 18.8979 0 21.0541 0C23.2106 0 24.9588 1.74819 24.9588 3.90467Z"
          fill="#212121"/>
</svg>
