<svg width="45" height="45" viewBox="0 0 45 45" fill="#00000" xmlns="http://www.w3.org/2000/svg">
    <path d="M29.1798 35.4844C29.0458 35.4844 28.9121 35.4275 28.814 35.3353C28.7218 35.2373 28.6649 35.1035 28.6649 34.9695C28.6649 34.8307 28.7218 34.6966 28.814 34.6044C29.0098 34.4135 29.3547 34.4135 29.545 34.6044C29.6378 34.6966 29.6941 34.8303 29.6941 34.9695C29.6941 35.1035 29.6372 35.2373 29.545 35.3353C29.4476 35.4275 29.3135 35.4844 29.1798 35.4844Z"/>
    <path d="M22.1339 35.3305C22.0416 35.2382 21.9847 35.1045 21.9847 34.9705C21.9847 34.8316 22.0416 34.7027 22.1339 34.6054C22.3248 34.4144 22.6745 34.4144 22.8648 34.6054C22.9577 34.6976 23.0139 34.8313 23.0139 34.9705C23.0139 35.1045 22.9577 35.2382 22.8648 35.3363C22.7667 35.4285 22.6337 35.4854 22.499 35.4854C22.3656 35.4845 22.2319 35.4276 22.1339 35.3305Z"/>
    <path d="M25.7634 35.4844C25.6294 35.4844 25.4957 35.4275 25.4034 35.3353C25.3054 35.2373 25.2543 35.1035 25.2543 34.9695C25.2543 34.8307 25.306 34.7018 25.4034 34.6044C25.5943 34.4135 25.9383 34.4135 26.1292 34.6044C26.2272 34.7024 26.2783 34.8303 26.2783 34.9695C26.2783 35.1035 26.2266 35.2373 26.1292 35.3295C26.0363 35.4275 25.9023 35.4844 25.7634 35.4844Z"/>
    <path d="M29.1798 32.6487C29.0458 32.6487 28.9121 32.5919 28.8198 32.4996C28.7218 32.4074 28.6649 32.2736 28.6649 32.1345C28.6649 32.0004 28.7218 31.8667 28.814 31.7687C29.0098 31.5778 29.3547 31.5778 29.545 31.7687C29.6378 31.8667 29.6941 32.0004 29.6941 32.1345C29.6941 32.2733 29.6372 32.4074 29.545 32.4996C29.4476 32.5919 29.3135 32.6487 29.1798 32.6487Z"/>
    <path d="M25.7634 32.6487C25.6294 32.6487 25.4957 32.5919 25.4034 32.4996C25.3054 32.4016 25.2543 32.2685 25.2543 32.1345C25.2543 32.0004 25.306 31.8667 25.4034 31.7687C25.5943 31.5778 25.9383 31.5778 26.1292 31.7687C26.2272 31.8667 26.2783 32.0004 26.2783 32.1345C26.2783 32.2685 26.2266 32.4022 26.1292 32.4996C26.0363 32.5919 25.9023 32.6487 25.7634 32.6487Z"/>
    <path d="M15.8203 32.6487C15.6862 32.6487 15.5525 32.597 15.4551 32.4996C15.3571 32.4016 15.306 32.2685 15.306 32.1345C15.306 32.0004 15.3578 31.8667 15.4551 31.7687C15.6509 31.5778 15.99 31.5778 16.1861 31.7687C16.279 31.8667 16.3352 32.0004 16.3352 32.1345C16.3352 32.2685 16.2783 32.4022 16.1812 32.4996C16.0884 32.597 15.9543 32.6487 15.8203 32.6487Z"/>
    <path d="M18.9337 35.4844C18.7997 35.4844 18.666 35.4275 18.5731 35.3353C18.475 35.2373 18.4191 35.1035 18.4191 34.9695C18.4191 34.8307 18.476 34.6966 18.5731 34.6044C18.7582 34.4135 19.1079 34.4135 19.2989 34.6044C19.3969 34.7024 19.448 34.8303 19.448 34.9695C19.448 35.1035 19.3962 35.2373 19.2989 35.3353C19.2008 35.4275 19.0729 35.4844 18.9337 35.4844Z"/>
    <path d="M15.8203 35.4844C15.6862 35.4844 15.5525 35.4275 15.4551 35.3295C15.3571 35.2373 15.306 35.1035 15.306 34.9695C15.306 34.8355 15.3578 34.7018 15.4551 34.6044C15.6509 34.4135 15.99 34.4135 16.1861 34.6044C16.279 34.7024 16.3352 34.8355 16.3352 34.9695C16.3352 35.1035 16.2783 35.2373 16.1812 35.3353C16.0884 35.4275 15.9543 35.4844 15.8203 35.4844Z"/>
    <path d="M22.5 -1.96701e-06C34.9061 -8.82436e-07 45 10.0939 45 22.5C45 34.9061 34.9061 45 22.5 45C10.0939 45 -3.05159e-06 34.9061 -1.96701e-06 22.5C-8.82436e-07 10.0939 10.0939 -3.05159e-06 22.5 -1.96701e-06ZM19.5114 24.4057C15.653 27.2079 13.2957 32.6893 13.136 37.4248L10.1486 37.4248C9.86415 37.4248 9.63369 37.6553 9.63369 37.9398C9.63369 38.2242 9.86415 38.4547 10.1486 38.4547L34.8514 38.4547C35.1358 38.4547 35.3663 38.2242 35.3663 37.9398C35.3663 37.6553 35.1358 37.4248 34.8514 37.4248L31.8663 37.4248C31.7265 32.7047 29.3961 27.2182 25.5715 24.4016L22.6363 22.2403L25.566 20.0845C29.3936 17.2685 31.7255 12.297 31.8659 7.57474L34.851 7.57474C35.1354 7.57474 35.3659 7.34428 35.3659 7.05982C35.3659 6.77536 35.1354 6.5449 34.851 6.5449L10.1482 6.54489C9.86375 6.54489 9.63328 6.77536 9.63328 7.05982C9.63328 7.34428 9.86375 7.57474 10.1482 7.57474L13.1333 7.57474C13.2708 12.2942 15.5986 17.2671 19.4203 20.0853L22.4176 22.2951L19.5114 24.4057Z"/>
    <path d="M22.866 31.7684C22.9589 31.8665 23.0151 32.0002 23.0151 32.1342C23.0151 32.2683 22.9589 32.402 22.866 32.4994C22.768 32.5923 22.6349 32.6485 22.5002 32.6485C22.3662 32.6485 22.2325 32.5916 22.1344 32.4994C22.0422 32.4013 21.9853 32.2683 21.9853 32.1342C21.9853 32.0002 22.0422 31.8665 22.1344 31.7684C22.3302 31.5782 22.6702 31.5782 22.866 31.7684Z"/>
    <path d="M18.9337 32.6488C18.7997 32.6488 18.666 32.5919 18.5731 32.4996C18.475 32.4016 18.4191 32.2685 18.4191 32.1345C18.4191 32.0005 18.476 31.8667 18.5731 31.7745C18.7582 31.5787 19.1079 31.5787 19.2989 31.7745C19.3969 31.8667 19.448 32.0005 19.448 32.1345C19.448 32.2685 19.3962 32.4022 19.2989 32.4996C19.206 32.5919 19.0729 32.6488 18.9337 32.6488Z"/>
</svg>
