<svg width="47" height="30" viewBox="0 0 47 30" fill="#00000" xmlns="http://www.w3.org/2000/svg">
    <path fill-rule="evenodd" clip-rule="evenodd"
          d="M32.2642 24.6227C32.2642 21.6575 34.6764 19.2451 37.6415 19.2451C40.6066 19.2451 43.0189 21.6575 43.0189 24.6227C43.0189 27.5874 40.607 29.9998 37.6415 29.9998C34.6765 29.9998 32.2642 27.5874 32.2642 24.6227ZM35.2795 24.6224C35.2795 25.9247 36.3389 26.9841 37.6415 26.9841C38.9442 26.9841 40.0036 25.9246 40.0035 24.6224C40.0035 23.3203 38.9442 22.2603 37.6415 22.2603C36.3389 22.2603 35.2795 23.3197 35.2795 24.6224Z"/>
    <path d="M29.6449 0H1.48719C0.665797 0 0 0.669922 0 1.4965V24.5413C0 25.3678 0.665797 26.0377 1.48719 26.0377H6.14714V23.0449H2.97438V2.99291H28.1577V24.5413H31.1321V1.4965C31.1322 0.669922 30.4664 0 29.6449 0Z"/>
    <rect x="13.5848" y="23.2075" width="20.3774" height="2.83019"/>
    <path fill-rule="evenodd" clip-rule="evenodd"
          d="M4.5282 24.6227C4.5282 21.6575 6.94047 19.2451 9.90556 19.2451C12.8706 19.2451 15.2828 21.6575 15.2829 24.6227C15.2829 27.5874 12.8706 29.9998 9.90556 29.9998C6.94047 29.9998 4.5282 27.5874 4.5282 24.6227ZM7.54354 24.6224C7.54354 25.9247 8.60289 26.9841 9.90551 26.9841C11.2076 26.9841 12.2675 25.9246 12.2675 24.6224C12.2675 23.3203 11.2081 22.2603 9.90551 22.2603C8.60289 22.2603 7.54354 23.3197 7.54354 24.6224Z"/>
    <path d="M44.9319 12.4529H30V15.4386H43.4485V23.0521H41.3225V26.0378H44.9318C45.751 26.0378 46.4151 25.37 46.4151 24.5449V13.9457C46.4152 13.1212 45.7511 12.4529 44.9319 12.4529Z"/>
    <path d="M40.3715 6.42335C40.1128 5.95301 39.618 5.6604 39.0809 5.6604H30V8.60626H38.2101L41.57 14.717L44.1509 13.2971L40.3715 6.42335Z"/>
</svg>
